<svg version="1" xmlns="http://www.w3.org/2000/svg" width="481.333" height="481.333" viewBox="0 0 361.000000 361.000000"><path d="M163 63.9c-48.9 10.8-85.7 49.1-93.5 97.5-4 24.6-.4 48.8 10.5 71.2C100.7 275 140.6 300 187.6 300c32.2 0 62.4-12.7 84.7-35.6 7.5-7.7 14.4-16.7 17.7-22.8l2.1-4.1-2.7 3.5c-5.3 6.7-17.9 18.6-24.3 22.9-22.8 15.5-50.6 21.1-77.1 15.6-12.8-2.7-33-11.3-33-14.1 0-2.7 7.7-23 14.5-38.4 4-9.1 13-28.2 20-42.5 22.5-46.1 27.1-56.6 29-66.2.5-2.6.2-3.7-1.9-5.8-2.3-2.3-3.2-2.5-11.3-2.5-20.2 0-42.8 9.6-61.8 26.1-24.6 21.4-32.7 47.5-18.6 60.2 4.7 4.2 9.8 6.1 17.3 6.1 4.6.1 6.2-.3 7.9-2.1 3-2.9 1.9-4.8-3.4-6.1-9.4-2.4-13.3-11.3-10.3-23 4.7-18.3 18.6-34.1 38.1-43.3 8.4-3.9 17.4-6.4 21.2-5.8l2.2.4-2.8 7c-1.6 3.8-9.5 20.9-17.6 38-22.9 48.2-32.8 72.6-34.3 84.5l-.7 5.5-6.4-6.5c-47.5-48.7-33.7-129.6 27.4-160.2 32.4-16.3 71.9-13.5 101.8 7.1 6.9 4.8 19.5 16.9 24.5 23.6l2.3 3-1.7-3.5c-4.8-9.9-17.4-24.6-28.7-33.3-15.1-11.7-27.4-17.9-44.6-22.5-13.3-3.5-41.1-4.2-54.1-1.3z"/><path d="M217.5 185.2c-5.1 1.8-15.4 9.7-19.7 15.1-7.7 9.8-9.8 17.9-5.8 23 4.5 5.7 14.4 4.2 25.7-3.9 2.6-1.8 4.9-3.2 5.1-2.9.2.2-.4 2.7-1.3 5.6-1.3 3.7-3.7 7.3-8.6 12.6-12 12.9-17.9 23.3-17.9 31.6 0 4.1.3 4.9 2.5 5.9 3.6 1.6 7.6-.4 14.4-7.7 5.6-6.1 14.9-19.9 19.2-28.8 1.6-3.2 4-5.5 10-9.5 7.4-4.9 7.9-5.4 7.9-8.7 0-4-1.3-4.4-6-2-1.7.9-3 1.3-3 1.1 0-.3 2-5.7 4.5-12 5.7-14.7 5.8-16.1.4-17.8-5.8-1.7-8.5.1-13.1 8.7-7.7 14.2-24 24.5-25.6 16.1-.9-4.4.7-6.3 7-8.6 4.2-1.5 7.7-3.7 10.6-6.5 4.8-4.9 5.5-8.5 2-10.9-2.6-1.8-4.1-1.9-8.3-.4z"/></svg>